<?xml version="1.0" encoding="UTF-8"?>
<!DOCTYPE svg PUBLIC "-//W3C//DTD SVG 1.1//EN" "http://www.w3.org/Graphics/SVG/1.1/DTD/svg11.dtd">
<!-- Creator: CorelDRAW X6 -->
<svg xmlns="http://www.w3.org/2000/svg" xml:space="preserve" width="1in" height="1in" version="1.1" style="shape-rendering:geometricPrecision; text-rendering:geometricPrecision; image-rendering:optimizeQuality; fill-rule:evenodd; clip-rule:evenodd"
viewBox="0 0 1000 1000"
 xmlns:xlink="http://www.w3.org/1999/xlink">
 <defs>
  <style type="text/css">
   <![CDATA[
    .str0 {stroke:#FEFEFE;stroke-width:13.8898}
    .fil5 {fill:none;fill-rule:nonzero}
    .fil0 {fill:#91D8F7}
    .fil1 {fill:#0171BB}
    .fil3 {fill:#FB0200}
    .fil2 {fill:#FEFEFE}
    .fil6 {fill:#3E4095;fill-rule:nonzero}
    .fil4 {fill:#FEFEFE;fill-rule:nonzero}
   ]]>
  </style>
 </defs>
 <g id="Layer_x0020_1">
  <metadata id="CorelCorpID_0Corel-Layer"/>
  <ellipse class="fil0" cx="500" cy="500" rx="468" ry="448"/>
  <g id="_306801584">
   <path class="fil1" d="M495 555c13,-17 175,-334 189,-361 80,-154 -35,-318 -190,-318 -156,0 -266,160 -190,315 43,88 95,185 142,273 14,27 32,66 49,91z"/>
   <path class="fil2" d="M461 -64c-95,22 -142,107 -124,191 16,76 93,142 190,122 77,-16 145,-95 124,-191 -16,-75 -94,-146 -190,-123z"/>
   <path class="fil3" d="M466 -42c-182,42 -118,305 56,269 65,-14 124,-79 107,-162 -13,-65 -79,-126 -163,-107z"/>
   <polygon class="fil2" points="468,65 416,66 415,117 467,118 468,171 520,171 520,119 572,118 573,66 520,65 520,14 468,13 "/>
  </g>
  <polygon class="fil4" points="213,739 227,553 285,553 274,643 306,643 317,536 376,536 343,739 296,739 302,669 271,673 261,739 "/>
  <polygon id="1" class="fil4" points="377,739 386,649 397,642 384,642 390,612 455,612 451,638 424,640 419,668 447,667 443,689 414,692 411,717 438,718 434,739 "/>
  <path id="2" class="fil4" d="M455 739l22 -117 34 0 2 -11 36 0 -12 127 -31 0 0 -27 -16 2 -9 25 -26 0zm54 -100l-17 57 15 -1 2 -56z"/>
  <path id="3" class="fil4" d="M547 740l14 -127 39 0 -18 104c0,0 0,1 1,1 1,0 2,0 3,0 2,0 3,0 5,0 2,0 3,0 5,0 0,0 0,0 1,0 0,0 0,0 1,0 0,0 0,0 1,0 0,0 0,0 1,0 0,0 1,0 1,0 0,0 1,0 1,0 1,0 3,0 4,1 1,0 2,0 3,1 1,0 2,0 2,0 1,0 1,0 1,0 0,0 0,1 0,1 0,1 0,1 -1,2 0,1 0,2 -1,3 0,1 0,2 -1,4 0,1 0,2 -1,4 0,1 -1,2 -1,3 0,1 0,2 0,2 0,0 0,1 0,1l-61 0z"/>
  <polygon id="4" class="fil4" points="611,642 614,613 687,612 683,638 668,640 652,737 620,739 630,648 643,641 "/>
  <polygon id="5" class="fil4" points="689,739 695,623 731,623 727,679 747,679 751,613 789,613 771,739 741,739 745,695 726,697 719,739 "/>
  <path id="6" class="fil4" d="M108 973l18 -172 56 0c0,0 0,2 -1,5 0,3 -1,7 -2,13 -1,6 -1,12 -2,18 -1,6 -2,13 -3,20 -1,6 -2,12 -2,18 -1,6 -2,11 -2,17 -1,5 -1,10 -2,13 -1,4 -1,6 -1,8 5,-9 9,-18 13,-26 4,-8 7,-15 11,-21 3,-6 5,-13 7,-18 2,-6 2,-11 2,-16 0,-3 0,-6 -1,-9 -1,-3 -2,-6 -4,-8 -1,-1 -2,-3 -3,-4 -1,-1 -2,-3 -4,-4 -1,-1 -3,-2 -4,-4 -2,-1 -3,-3 -5,-4 -2,-1 -3,-2 -5,-3 -2,-1 -4,-2 -6,-3 -2,-1 -4,-2 -6,-4 -2,-1 -5,-2 -7,-4 0,0 1,0 2,-1 2,0 4,-1 7,-2 3,-1 6,-2 10,-2 4,-1 7,-2 11,-3 0,0 0,0 0,0 0,0 0,0 0,0 0,0 0,0 0,0 0,0 0,0 0,0 0,0 0,0 0,0 0,0 0,0 0,0 2,0 3,-1 4,-1 1,0 3,-1 4,-1 1,0 3,-1 4,-1 1,0 3,-1 4,-1 3,-1 5,-2 7,-2 2,-1 3,-1 4,-1 7,3 14,6 19,9 5,4 9,8 13,13 3,5 5,10 7,15 2,5 2,10 2,16 0,2 0,3 0,5 0,2 0,3 -1,5 0,2 0,3 -1,5 0,2 -1,3 -1,5 -1,4 -2,8 -3,12 -1,4 -3,8 -4,12 -2,4 -3,8 -5,12 -2,4 -3,7 -5,11 -3,5 -5,9 -8,13 -2,4 -5,8 -7,11 -2,3 -4,5 -5,7 -1,2 -2,2 -2,2l-51 -1 -11 52 -44 0z"/>
  <path id="7" class="fil4" d="M255 973l13 -128 40 0c0,0 0,2 -1,6 -1,3 -1,9 -3,15 -1,7 -2,14 -4,21 -1,7 -3,15 -4,23 -1,8 -3,15 -4,23 -1,7 -3,14 -4,21 -1,6 -2,11 -3,14 -1,3 -1,5 -1,5 -1,0 -1,0 -3,0 -1,0 -3,0 -5,0 -2,0 -4,0 -6,0 -2,0 -5,0 -7,0 -1,0 -2,0 -2,0 -1,0 -2,0 -2,0 -1,0 -1,0 -2,0 -1,0 -1,0 -2,0z"/>
  <path id="8" class="fil4" d="M308 972l10 -121 49 0 6 69 11 -75 31 0c0,0 0,2 -1,5 -1,3 -1,8 -3,15 -1,6 -2,13 -4,20 -1,7 -2,15 -4,22 -2,8 -3,15 -4,23 -1,7 -3,14 -4,21 -1,6 -2,11 -3,15 -1,3 -1,5 -1,5 0,0 0,0 -1,0 -1,0 -1,0 -2,0 -1,0 -2,0 -3,0 -1,0 -2,0 -4,0 0,0 -1,0 -1,0 0,0 -1,0 -1,0 -1,0 -1,0 -1,0 0,0 -1,0 -1,0 0,0 -1,0 -1,0 0,0 -1,0 -1,0 0,0 -1,0 -1,0 0,0 -1,0 -1,0 -2,0 -5,0 -7,0 -2,0 -4,0 -6,0 -2,0 -4,0 -4,0 -1,0 -1,0 -1,0l-8 -72 -13 72 -26 0z"/>
  <path id="9" class="fil4" d="M414 973l18 -172 56 0c0,0 0,2 -1,5 0,3 -1,7 -2,13 -1,6 -1,12 -2,18 -1,6 -2,13 -3,20 -1,6 -2,12 -2,18 -1,6 -2,11 -2,17 -1,5 -1,10 -2,13 -1,4 -1,6 -1,8 5,-9 9,-18 13,-26 4,-8 7,-15 11,-21 3,-6 5,-13 7,-18 2,-6 2,-11 2,-16 0,-3 0,-6 -1,-9 -1,-3 -2,-6 -4,-8 -1,-1 -2,-3 -3,-4 -1,-1 -2,-3 -4,-4 -1,-1 -3,-2 -4,-4 -2,-1 -3,-3 -5,-4 -2,-1 -3,-2 -5,-3 -2,-1 -4,-2 -6,-3 -2,-1 -4,-2 -6,-4 -2,-1 -5,-2 -7,-4 0,0 1,0 2,-1 2,0 4,-1 7,-2 3,-1 6,-2 10,-2 4,-1 7,-2 11,-3 0,0 0,0 0,0 0,0 0,0 0,0 0,0 0,0 0,0 0,0 0,0 0,0 0,0 0,0 0,0 0,0 0,0 0,0 2,0 3,-1 4,-1 1,0 3,-1 4,-1 1,0 3,-1 4,-1 1,0 3,-1 4,-1 3,-1 5,-2 7,-2 2,-1 3,-1 4,-1 7,3 14,6 19,9 5,4 9,8 13,13 3,5 5,10 7,15 2,5 2,10 2,16 0,2 0,3 0,5 0,2 0,3 -1,5 0,2 0,3 -1,5 0,2 -1,3 -1,5 -1,4 -2,8 -3,12 -1,4 -3,8 -4,12 -2,4 -3,8 -5,12 -2,4 -3,7 -5,11 -3,5 -5,9 -8,13 -2,4 -5,8 -7,11 -2,3 -4,5 -5,7 -1,2 -2,2 -2,2l-51 -1 -11 52 -44 0z"/>
  <path id="10" class="fil4" d="M600 963c2,-3 5,-7 7,-11 2,-4 4,-8 6,-12 2,-4 3,-8 4,-12 1,-4 2,-9 3,-13 0,0 0,-1 0,-1 0,0 0,-1 0,-1 0,0 0,-1 0,-1 0,0 0,-1 0,-1 0,0 0,-1 0,-1 0,0 0,-1 0,-1 0,0 0,-1 0,-1 0,0 0,-1 0,-1 0,-5 -1,-10 -2,-14 -1,-5 -3,-9 -5,-14 -2,-4 -5,-9 -9,-13 -4,-4 -9,-8 -14,-11 0,0 1,0 2,0 1,0 3,-1 6,-1 3,-1 5,-1 8,-2 3,-1 6,-1 9,-2 0,0 0,0 0,0 0,0 0,0 0,0 0,0 0,0 0,0 0,0 0,0 0,0 0,0 0,0 1,0 0,0 0,0 1,0 1,0 2,0 3,-1 1,0 2,0 3,-1 1,0 2,0 3,-1 1,0 2,0 3,-1 4,3 7,6 9,9 3,3 5,6 7,10 2,3 4,6 5,10 1,3 3,6 3,10 0,1 1,2 1,4 0,1 0,3 0,4 0,1 0,2 0,4 0,1 0,2 0,4 0,5 0,10 -1,14 -1,5 -2,9 -4,14 -2,4 -3,9 -5,12 -2,4 -4,8 -6,11 -2,3 -4,6 -6,9 -2,3 -4,5 -6,7 -2,2 -3,3 -4,4 -1,1 -1,1 -1,1 0,0 -1,0 -2,0 -1,0 -3,0 -6,0 -3,0 -6,0 -8,0 -3,0 -6,0 -9,0 -2,0 -4,0 -6,0 -2,0 -4,0 -6,0 -2,0 -4,0 -5,0 -2,0 -3,0 -4,0 -1,-1 -2,-3 -3,-4 -1,-2 -2,-3 -3,-5 -1,-1 -1,-2 -1,-2 0,-1 -1,-2 -1,-2 0,-1 -1,-1 -1,-2 0,-1 -1,-2 -1,-2 -1,-2 -1,-4 -2,-6 -1,-2 -1,-4 -1,-7 0,-1 0,-2 -1,-3 0,-1 0,-2 0,-3 0,-1 0,-2 0,-3 0,-1 0,-2 0,-3 0,-4 0,-8 1,-11 0,-4 1,-7 2,-11 1,-3 2,-7 3,-10 1,-3 2,-6 3,-9 1,-3 2,-5 3,-7 1,-2 2,-4 3,-5 1,-2 2,-3 2,-3 1,-1 1,-1 1,-1 0,0 0,0 1,0 1,0 2,0 4,0 2,0 3,0 5,0 2,0 4,0 6,0 1,0 2,0 3,0 1,0 2,0 3,0 1,0 2,0 3,0 1,0 2,0 3,0 -3,7 -6,14 -8,20 -2,6 -4,12 -5,17 -1,5 -2,10 -3,14 -1,4 -1,8 -1,11 0,3 0,5 0,7 0,2 1,4 1,6 0,2 1,3 1,5 1,1 1,3 2,4 0,1 1,2 1,2 0,1 1,1 1,2 0,1 1,1 1,2 0,1 1,1 1,1l0 -1z"/>
  <path id="11" class="fil4" d="M658 973l13 -128 40 0c0,0 0,2 -1,6 -1,3 -1,9 -3,15 -1,7 -2,14 -4,21 -1,7 -3,15 -4,23 -1,8 -3,15 -4,23 -1,7 -3,14 -4,21 -1,6 -2,11 -3,14 -1,3 -1,5 -1,5 -1,0 -1,0 -3,0 -1,0 -3,0 -5,0 -2,0 -4,0 -6,0 -2,0 -5,0 -7,0 -1,0 -2,0 -2,0 -1,0 -2,0 -2,0 -1,0 -1,0 -2,0 -1,0 -1,0 -2,0z"/>
  <path id="12" class="fil4" d="M711 972l10 -121 49 0 6 69 11 -75 31 0c0,0 0,2 -1,5 -1,3 -1,8 -3,15 -1,6 -2,13 -4,20 -1,7 -2,15 -4,22 -2,8 -3,15 -4,23 -1,7 -3,14 -4,21 -1,6 -2,11 -3,15 -1,3 -1,5 -1,5 0,0 0,0 -1,0 -1,0 -1,0 -2,0 -1,0 -2,0 -3,0 -1,0 -2,0 -4,0 0,0 -1,0 -1,0 0,0 -1,0 -1,0 -1,0 -1,0 -1,0 0,0 -1,0 -1,0 0,0 -1,0 -1,0 0,0 -1,0 -1,0 0,0 -1,0 -1,0 0,0 -1,0 -1,0 -2,0 -5,0 -7,0 -2,0 -4,0 -6,0 -2,0 -4,0 -4,0 -1,0 -1,0 -1,0l-8 -72 -13 72 -26 0z"/>
  <polygon id="13" class="fil4" points="817,875 819,846 892,845 889,871 874,873 857,970 825,972 836,881 849,874 "/>
  <polygon id="14" class="fil5 str0" points="213,739 227,553 285,553 274,643 306,643 317,536 376,536 343,739 296,739 302,669 271,673 261,739 "/>
  <polygon id="15" class="fil5 str0" points="377,739 386,649 397,642 384,642 390,612 455,612 451,638 424,640 419,668 447,667 443,689 414,692 411,717 438,718 434,739 "/>
  <path id="16" class="fil5 str0" d="M455 739l22 -117 34 0 2 -11 36 0 -12 127 -31 0 0 -27 -16 2 -9 25 -26 0zm54 -100l-17 57 15 -1 2 -56z"/>
  <path id="17" class="fil5 str0" d="M547 740l14 -127 39 0 -18 104c0,0 0,1 1,1 1,0 2,0 3,0 2,0 3,0 5,0 2,0 3,0 5,0 0,0 0,0 1,0 0,0 0,0 1,0 0,0 0,0 1,0 0,0 0,0 1,0 0,0 1,0 1,0 0,0 1,0 1,0 1,0 3,0 4,1 1,0 2,0 3,1 1,0 2,0 2,0 1,0 1,0 1,0 0,0 0,1 0,1 0,1 0,1 -1,2 0,1 0,2 -1,3 0,1 0,2 -1,4 0,1 0,2 -1,4 0,1 -1,2 -1,3 0,1 0,2 0,2 0,0 0,1 0,1l-61 0z"/>
  <polygon id="18" class="fil5 str0" points="611,642 614,613 687,612 683,638 668,640 652,737 620,739 630,648 643,641 "/>
  <polygon id="19" class="fil5 str0" points="689,739 695,623 731,623 727,679 747,679 751,613 789,613 771,739 741,739 745,695 726,697 719,739 "/>
  <path id="20" class="fil5 str0" d="M108 973l18 -172 56 0c0,0 0,2 -1,5 0,3 -1,7 -2,13 -1,6 -1,12 -2,18 -1,6 -2,13 -3,20 -1,6 -2,12 -2,18 -1,6 -2,11 -2,17 -1,5 -1,10 -2,13 -1,4 -1,6 -1,8 5,-9 9,-18 13,-26 4,-8 7,-15 11,-21 3,-6 5,-13 7,-18 2,-6 2,-11 2,-16 0,-3 0,-6 -1,-9 -1,-3 -2,-6 -4,-8 -1,-1 -2,-3 -3,-4 -1,-1 -2,-3 -4,-4 -1,-1 -3,-2 -4,-4 -2,-1 -3,-3 -5,-4 -2,-1 -3,-2 -5,-3 -2,-1 -4,-2 -6,-3 -2,-1 -4,-2 -6,-4 -2,-1 -5,-2 -7,-4 0,0 1,0 2,-1 2,0 4,-1 7,-2 3,-1 6,-2 10,-2 4,-1 7,-2 11,-3 0,0 0,0 0,0 0,0 0,0 0,0 0,0 0,0 0,0 0,0 0,0 0,0 0,0 0,0 0,0 0,0 0,0 0,0 2,0 3,-1 4,-1 1,0 3,-1 4,-1 1,0 3,-1 4,-1 1,0 3,-1 4,-1 3,-1 5,-2 7,-2 2,-1 3,-1 4,-1 7,3 14,6 19,9 5,4 9,8 13,13 3,5 5,10 7,15 2,5 2,10 2,16 0,2 0,3 0,5 0,2 0,3 -1,5 0,2 0,3 -1,5 0,2 -1,3 -1,5 -1,4 -2,8 -3,12 -1,4 -3,8 -4,12 -2,4 -3,8 -5,12 -2,4 -3,7 -5,11 -3,5 -5,9 -8,13 -2,4 -5,8 -7,11 -2,3 -4,5 -5,7 -1,2 -2,2 -2,2l-51 -1 -11 52 -44 0z"/>
  <path id="21" class="fil5 str0" d="M255 973l13 -128 40 0c0,0 0,2 -1,6 -1,3 -1,9 -3,15 -1,7 -2,14 -4,21 -1,7 -3,15 -4,23 -1,8 -3,15 -4,23 -1,7 -3,14 -4,21 -1,6 -2,11 -3,14 -1,3 -1,5 -1,5 -1,0 -1,0 -3,0 -1,0 -3,0 -5,0 -2,0 -4,0 -6,0 -2,0 -5,0 -7,0 -1,0 -2,0 -2,0 -1,0 -2,0 -2,0 -1,0 -1,0 -2,0 -1,0 -1,0 -2,0z"/>
  <path id="22" class="fil5 str0" d="M308 972l10 -121 49 0 6 69 11 -75 31 0c0,0 0,2 -1,5 -1,3 -1,8 -3,15 -1,6 -2,13 -4,20 -1,7 -2,15 -4,22 -2,8 -3,15 -4,23 -1,7 -3,14 -4,21 -1,6 -2,11 -3,15 -1,3 -1,5 -1,5 0,0 0,0 -1,0 -1,0 -1,0 -2,0 -1,0 -2,0 -3,0 -1,0 -2,0 -4,0 0,0 -1,0 -1,0 0,0 -1,0 -1,0 -1,0 -1,0 -1,0 0,0 -1,0 -1,0 0,0 -1,0 -1,0 0,0 -1,0 -1,0 0,0 -1,0 -1,0 0,0 -1,0 -1,0 -2,0 -5,0 -7,0 -2,0 -4,0 -6,0 -2,0 -4,0 -4,0 -1,0 -1,0 -1,0l-8 -72 -13 72 -26 0z"/>
  <path id="23" class="fil5 str0" d="M414 973l18 -172 56 0c0,0 0,2 -1,5 0,3 -1,7 -2,13 -1,6 -1,12 -2,18 -1,6 -2,13 -3,20 -1,6 -2,12 -2,18 -1,6 -2,11 -2,17 -1,5 -1,10 -2,13 -1,4 -1,6 -1,8 5,-9 9,-18 13,-26 4,-8 7,-15 11,-21 3,-6 5,-13 7,-18 2,-6 2,-11 2,-16 0,-3 0,-6 -1,-9 -1,-3 -2,-6 -4,-8 -1,-1 -2,-3 -3,-4 -1,-1 -2,-3 -4,-4 -1,-1 -3,-2 -4,-4 -2,-1 -3,-3 -5,-4 -2,-1 -3,-2 -5,-3 -2,-1 -4,-2 -6,-3 -2,-1 -4,-2 -6,-4 -2,-1 -5,-2 -7,-4 0,0 1,0 2,-1 2,0 4,-1 7,-2 3,-1 6,-2 10,-2 4,-1 7,-2 11,-3 0,0 0,0 0,0 0,0 0,0 0,0 0,0 0,0 0,0 0,0 0,0 0,0 0,0 0,0 0,0 0,0 0,0 0,0 2,0 3,-1 4,-1 1,0 3,-1 4,-1 1,0 3,-1 4,-1 1,0 3,-1 4,-1 3,-1 5,-2 7,-2 2,-1 3,-1 4,-1 7,3 14,6 19,9 5,4 9,8 13,13 3,5 5,10 7,15 2,5 2,10 2,16 0,2 0,3 0,5 0,2 0,3 -1,5 0,2 0,3 -1,5 0,2 -1,3 -1,5 -1,4 -2,8 -3,12 -1,4 -3,8 -4,12 -2,4 -3,8 -5,12 -2,4 -3,7 -5,11 -3,5 -5,9 -8,13 -2,4 -5,8 -7,11 -2,3 -4,5 -5,7 -1,2 -2,2 -2,2l-51 -1 -11 52 -44 0z"/>
  <path id="24" class="fil5 str0" d="M600 963c2,-3 5,-7 7,-11 2,-4 4,-8 6,-12 2,-4 3,-8 4,-12 1,-4 2,-9 3,-13 0,0 0,-1 0,-1 0,0 0,-1 0,-1 0,0 0,-1 0,-1 0,0 0,-1 0,-1 0,0 0,-1 0,-1 0,0 0,-1 0,-1 0,0 0,-1 0,-1 0,0 0,-1 0,-1 0,-5 -1,-10 -2,-14 -1,-5 -3,-9 -5,-14 -2,-4 -5,-9 -9,-13 -4,-4 -9,-8 -14,-11 0,0 1,0 2,0 1,0 3,-1 6,-1 3,-1 5,-1 8,-2 3,-1 6,-1 9,-2 0,0 0,0 0,0 0,0 0,0 0,0 0,0 0,0 0,0 0,0 0,0 0,0 0,0 0,0 1,0 0,0 0,0 1,0 1,0 2,0 3,-1 1,0 2,0 3,-1 1,0 2,0 3,-1 1,0 2,0 3,-1 4,3 7,6 9,9 3,3 5,6 7,10 2,3 4,6 5,10 1,3 3,6 3,10 0,1 1,2 1,4 0,1 0,3 0,4 0,1 0,2 0,4 0,1 0,2 0,4 0,5 0,10 -1,14 -1,5 -2,9 -4,14 -2,4 -3,9 -5,12 -2,4 -4,8 -6,11 -2,3 -4,6 -6,9 -2,3 -4,5 -6,7 -2,2 -3,3 -4,4 -1,1 -1,1 -1,1 0,0 -1,0 -2,0 -1,0 -3,0 -6,0 -3,0 -6,0 -8,0 -3,0 -6,0 -9,0 -2,0 -4,0 -6,0 -2,0 -4,0 -6,0 -2,0 -4,0 -5,0 -2,0 -3,0 -4,0 -1,-1 -2,-3 -3,-4 -1,-2 -2,-3 -3,-5 -1,-1 -1,-2 -1,-2 0,-1 -1,-2 -1,-2 0,-1 -1,-1 -1,-2 0,-1 -1,-2 -1,-2 -1,-2 -1,-4 -2,-6 -1,-2 -1,-4 -1,-7 0,-1 0,-2 -1,-3 0,-1 0,-2 0,-3 0,-1 0,-2 0,-3 0,-1 0,-2 0,-3 0,-4 0,-8 1,-11 0,-4 1,-7 2,-11 1,-3 2,-7 3,-10 1,-3 2,-6 3,-9 1,-3 2,-5 3,-7 1,-2 2,-4 3,-5 1,-2 2,-3 2,-3 1,-1 1,-1 1,-1 0,0 0,0 1,0 1,0 2,0 4,0 2,0 3,0 5,0 2,0 4,0 6,0 1,0 2,0 3,0 1,0 2,0 3,0 1,0 2,0 3,0 1,0 2,0 3,0 -3,7 -6,14 -8,20 -2,6 -4,12 -5,17 -1,5 -2,10 -3,14 -1,4 -1,8 -1,11 0,3 0,5 0,7 0,2 1,4 1,6 0,2 1,3 1,5 1,1 1,3 2,4 0,1 1,2 1,2 0,1 1,1 1,2 0,1 1,1 1,2 0,1 1,1 1,1l0 -1z"/>
  <path id="25" class="fil5 str0" d="M658 973l13 -128 40 0c0,0 0,2 -1,6 -1,3 -1,9 -3,15 -1,7 -2,14 -4,21 -1,7 -3,15 -4,23 -1,8 -3,15 -4,23 -1,7 -3,14 -4,21 -1,6 -2,11 -3,14 -1,3 -1,5 -1,5 -1,0 -1,0 -3,0 -1,0 -3,0 -5,0 -2,0 -4,0 -6,0 -2,0 -5,0 -7,0 -1,0 -2,0 -2,0 -1,0 -2,0 -2,0 -1,0 -1,0 -2,0 -1,0 -1,0 -2,0z"/>
  <path id="26" class="fil5 str0" d="M711 972l10 -121 49 0 6 69 11 -75 31 0c0,0 0,2 -1,5 -1,3 -1,8 -3,15 -1,6 -2,13 -4,20 -1,7 -2,15 -4,22 -2,8 -3,15 -4,23 -1,7 -3,14 -4,21 -1,6 -2,11 -3,15 -1,3 -1,5 -1,5 0,0 0,0 -1,0 -1,0 -1,0 -2,0 -1,0 -2,0 -3,0 -1,0 -2,0 -4,0 0,0 -1,0 -1,0 0,0 -1,0 -1,0 -1,0 -1,0 -1,0 0,0 -1,0 -1,0 0,0 -1,0 -1,0 0,0 -1,0 -1,0 0,0 -1,0 -1,0 0,0 -1,0 -1,0 -2,0 -5,0 -7,0 -2,0 -4,0 -6,0 -2,0 -4,0 -4,0 -1,0 -1,0 -1,0l-8 -72 -13 72 -26 0z"/>
  <polygon id="27" class="fil5 str0" points="817,875 819,846 892,845 889,871 874,873 857,970 825,972 836,881 849,874 "/>
  <polygon class="fil6" points="213,739 227,553 285,553 274,643 306,643 317,536 376,536 343,739 296,739 302,669 271,673 261,739 "/>
  <polygon id="1" class="fil6" points="377,739 386,649 397,642 384,642 390,612 455,612 451,638 424,640 419,668 447,667 443,689 414,692 411,717 438,718 434,739 "/>
  <path id="2" class="fil6" d="M455 739l22 -117 34 0 2 -11 36 0 -12 127 -31 0 0 -27 -16 2 -9 25 -26 0zm54 -100l-17 57 15 -1 2 -56z"/>
  <path id="3" class="fil6" d="M547 740l14 -127 39 0 -18 104c0,0 0,1 1,1 1,0 2,0 3,0 2,0 3,0 5,0 2,0 3,0 5,0 0,0 0,0 1,0 0,0 0,0 1,0 0,0 0,0 1,0 0,0 0,0 1,0 0,0 1,0 1,0 0,0 1,0 1,0 1,0 3,0 4,1 1,0 2,0 3,1 1,0 2,0 2,0 1,0 1,0 1,0 0,0 0,1 0,1 0,1 0,1 -1,2 0,1 0,2 -1,3 0,1 0,2 -1,4 0,1 0,2 -1,4 0,1 -1,2 -1,3 0,1 0,2 0,2 0,0 0,1 0,1l-61 0z"/>
  <polygon id="4" class="fil6" points="611,642 614,613 687,612 683,638 668,640 652,737 620,739 630,648 643,641 "/>
  <polygon id="5" class="fil6" points="689,739 695,623 731,623 727,679 747,679 751,613 789,613 771,739 741,739 745,695 726,697 719,739 "/>
  <path id="6" class="fil6" d="M108 973l18 -172 56 0c0,0 0,2 -1,5 0,3 -1,7 -2,13 -1,6 -1,12 -2,18 -1,6 -2,13 -3,20 -1,6 -2,12 -2,18 -1,6 -2,11 -2,17 -1,5 -1,10 -2,13 -1,4 -1,6 -1,8 5,-9 9,-18 13,-26 4,-8 7,-15 11,-21 3,-6 5,-13 7,-18 2,-6 2,-11 2,-16 0,-3 0,-6 -1,-9 -1,-3 -2,-6 -4,-8 -1,-1 -2,-3 -3,-4 -1,-1 -2,-3 -4,-4 -1,-1 -3,-2 -4,-4 -2,-1 -3,-3 -5,-4 -2,-1 -3,-2 -5,-3 -2,-1 -4,-2 -6,-3 -2,-1 -4,-2 -6,-4 -2,-1 -5,-2 -7,-4 0,0 1,0 2,-1 2,0 4,-1 7,-2 3,-1 6,-2 10,-2 4,-1 7,-2 11,-3 0,0 0,0 0,0 0,0 0,0 0,0 0,0 0,0 0,0 0,0 0,0 0,0 0,0 0,0 0,0 0,0 0,0 0,0 2,0 3,-1 4,-1 1,0 3,-1 4,-1 1,0 3,-1 4,-1 1,0 3,-1 4,-1 3,-1 5,-2 7,-2 2,-1 3,-1 4,-1 7,3 14,6 19,9 5,4 9,8 13,13 3,5 5,10 7,15 2,5 2,10 2,16 0,2 0,3 0,5 0,2 0,3 -1,5 0,2 0,3 -1,5 0,2 -1,3 -1,5 -1,4 -2,8 -3,12 -1,4 -3,8 -4,12 -2,4 -3,8 -5,12 -2,4 -3,7 -5,11 -3,5 -5,9 -8,13 -2,4 -5,8 -7,11 -2,3 -4,5 -5,7 -1,2 -2,2 -2,2l-51 -1 -11 52 -44 0z"/>
  <path id="7" class="fil6" d="M255 973l13 -128 40 0c0,0 0,2 -1,6 -1,3 -1,9 -3,15 -1,7 -2,14 -4,21 -1,7 -3,15 -4,23 -1,8 -3,15 -4,23 -1,7 -3,14 -4,21 -1,6 -2,11 -3,14 -1,3 -1,5 -1,5 -1,0 -1,0 -3,0 -1,0 -3,0 -5,0 -2,0 -4,0 -6,0 -2,0 -5,0 -7,0 -1,0 -2,0 -2,0 -1,0 -2,0 -2,0 -1,0 -1,0 -2,0 -1,0 -1,0 -2,0z"/>
  <path id="8" class="fil6" d="M308 972l10 -121 49 0 6 69 11 -75 31 0c0,0 0,2 -1,5 -1,3 -1,8 -3,15 -1,6 -2,13 -4,20 -1,7 -2,15 -4,22 -2,8 -3,15 -4,23 -1,7 -3,14 -4,21 -1,6 -2,11 -3,15 -1,3 -1,5 -1,5 0,0 0,0 -1,0 -1,0 -1,0 -2,0 -1,0 -2,0 -3,0 -1,0 -2,0 -4,0 0,0 -1,0 -1,0 0,0 -1,0 -1,0 -1,0 -1,0 -1,0 0,0 -1,0 -1,0 0,0 -1,0 -1,0 0,0 -1,0 -1,0 0,0 -1,0 -1,0 0,0 -1,0 -1,0 -2,0 -5,0 -7,0 -2,0 -4,0 -6,0 -2,0 -4,0 -4,0 -1,0 -1,0 -1,0l-8 -72 -13 72 -26 0z"/>
  <path id="9" class="fil6" d="M414 973l18 -172 56 0c0,0 0,2 -1,5 0,3 -1,7 -2,13 -1,6 -1,12 -2,18 -1,6 -2,13 -3,20 -1,6 -2,12 -2,18 -1,6 -2,11 -2,17 -1,5 -1,10 -2,13 -1,4 -1,6 -1,8 5,-9 9,-18 13,-26 4,-8 7,-15 11,-21 3,-6 5,-13 7,-18 2,-6 2,-11 2,-16 0,-3 0,-6 -1,-9 -1,-3 -2,-6 -4,-8 -1,-1 -2,-3 -3,-4 -1,-1 -2,-3 -4,-4 -1,-1 -3,-2 -4,-4 -2,-1 -3,-3 -5,-4 -2,-1 -3,-2 -5,-3 -2,-1 -4,-2 -6,-3 -2,-1 -4,-2 -6,-4 -2,-1 -5,-2 -7,-4 0,0 1,0 2,-1 2,0 4,-1 7,-2 3,-1 6,-2 10,-2 4,-1 7,-2 11,-3 0,0 0,0 0,0 0,0 0,0 0,0 0,0 0,0 0,0 0,0 0,0 0,0 0,0 0,0 0,0 0,0 0,0 0,0 2,0 3,-1 4,-1 1,0 3,-1 4,-1 1,0 3,-1 4,-1 1,0 3,-1 4,-1 3,-1 5,-2 7,-2 2,-1 3,-1 4,-1 7,3 14,6 19,9 5,4 9,8 13,13 3,5 5,10 7,15 2,5 2,10 2,16 0,2 0,3 0,5 0,2 0,3 -1,5 0,2 0,3 -1,5 0,2 -1,3 -1,5 -1,4 -2,8 -3,12 -1,4 -3,8 -4,12 -2,4 -3,8 -5,12 -2,4 -3,7 -5,11 -3,5 -5,9 -8,13 -2,4 -5,8 -7,11 -2,3 -4,5 -5,7 -1,2 -2,2 -2,2l-51 -1 -11 52 -44 0z"/>
  <path id="10" class="fil6" d="M600 963c2,-3 5,-7 7,-11 2,-4 4,-8 6,-12 2,-4 3,-8 4,-12 1,-4 2,-9 3,-13 0,0 0,-1 0,-1 0,0 0,-1 0,-1 0,0 0,-1 0,-1 0,0 0,-1 0,-1 0,0 0,-1 0,-1 0,0 0,-1 0,-1 0,0 0,-1 0,-1 0,0 0,-1 0,-1 0,-5 -1,-10 -2,-14 -1,-5 -3,-9 -5,-14 -2,-4 -5,-9 -9,-13 -4,-4 -9,-8 -14,-11 0,0 1,0 2,0 1,0 3,-1 6,-1 3,-1 5,-1 8,-2 3,-1 6,-1 9,-2 0,0 0,0 0,0 0,0 0,0 0,0 0,0 0,0 0,0 0,0 0,0 0,0 0,0 0,0 1,0 0,0 0,0 1,0 1,0 2,0 3,-1 1,0 2,0 3,-1 1,0 2,0 3,-1 1,0 2,0 3,-1 4,3 7,6 9,9 3,3 5,6 7,10 2,3 4,6 5,10 1,3 3,6 3,10 0,1 1,2 1,4 0,1 0,3 0,4 0,1 0,2 0,4 0,1 0,2 0,4 0,5 0,10 -1,14 -1,5 -2,9 -4,14 -2,4 -3,9 -5,12 -2,4 -4,8 -6,11 -2,3 -4,6 -6,9 -2,3 -4,5 -6,7 -2,2 -3,3 -4,4 -1,1 -1,1 -1,1 0,0 -1,0 -2,0 -1,0 -3,0 -6,0 -3,0 -6,0 -8,0 -3,0 -6,0 -9,0 -2,0 -4,0 -6,0 -2,0 -4,0 -6,0 -2,0 -4,0 -5,0 -2,0 -3,0 -4,0 -1,-1 -2,-3 -3,-4 -1,-2 -2,-3 -3,-5 -1,-1 -1,-2 -1,-2 0,-1 -1,-2 -1,-2 0,-1 -1,-1 -1,-2 0,-1 -1,-2 -1,-2 -1,-2 -1,-4 -2,-6 -1,-2 -1,-4 -1,-7 0,-1 0,-2 -1,-3 0,-1 0,-2 0,-3 0,-1 0,-2 0,-3 0,-1 0,-2 0,-3 0,-4 0,-8 1,-11 0,-4 1,-7 2,-11 1,-3 2,-7 3,-10 1,-3 2,-6 3,-9 1,-3 2,-5 3,-7 1,-2 2,-4 3,-5 1,-2 2,-3 2,-3 1,-1 1,-1 1,-1 0,0 0,0 1,0 1,0 2,0 4,0 2,0 3,0 5,0 2,0 4,0 6,0 1,0 2,0 3,0 1,0 2,0 3,0 1,0 2,0 3,0 1,0 2,0 3,0 -3,7 -6,14 -8,20 -2,6 -4,12 -5,17 -1,5 -2,10 -3,14 -1,4 -1,8 -1,11 0,3 0,5 0,7 0,2 1,4 1,6 0,2 1,3 1,5 1,1 1,3 2,4 0,1 1,2 1,2 0,1 1,1 1,2 0,1 1,1 1,2 0,1 1,1 1,1l0 -1z"/>
  <path id="11" class="fil6" d="M658 973l13 -128 40 0c0,0 0,2 -1,6 -1,3 -1,9 -3,15 -1,7 -2,14 -4,21 -1,7 -3,15 -4,23 -1,8 -3,15 -4,23 -1,7 -3,14 -4,21 -1,6 -2,11 -3,14 -1,3 -1,5 -1,5 -1,0 -1,0 -3,0 -1,0 -3,0 -5,0 -2,0 -4,0 -6,0 -2,0 -5,0 -7,0 -1,0 -2,0 -2,0 -1,0 -2,0 -2,0 -1,0 -1,0 -2,0 -1,0 -1,0 -2,0z"/>
  <path id="12" class="fil6" d="M711 972l10 -121 49 0 6 69 11 -75 31 0c0,0 0,2 -1,5 -1,3 -1,8 -3,15 -1,6 -2,13 -4,20 -1,7 -2,15 -4,22 -2,8 -3,15 -4,23 -1,7 -3,14 -4,21 -1,6 -2,11 -3,15 -1,3 -1,5 -1,5 0,0 0,0 -1,0 -1,0 -1,0 -2,0 -1,0 -2,0 -3,0 -1,0 -2,0 -4,0 0,0 -1,0 -1,0 0,0 -1,0 -1,0 -1,0 -1,0 -1,0 0,0 -1,0 -1,0 0,0 -1,0 -1,0 0,0 -1,0 -1,0 0,0 -1,0 -1,0 0,0 -1,0 -1,0 -2,0 -5,0 -7,0 -2,0 -4,0 -6,0 -2,0 -4,0 -4,0 -1,0 -1,0 -1,0l-8 -72 -13 72 -26 0z"/>
  <polygon id="13" class="fil6" points="817,875 819,846 892,845 889,871 874,873 857,970 825,972 836,881 849,874 "/>
 </g>
</svg>
